<mxfile host="app.diagrams.net" modified="2021-07-21T08:27:33.188Z" agent="5.0 (Windows NT 10.0; WOW64) AppleWebKit/537.36 (KHTML, like Gecko) Chrome/91.0.4472.164 Safari/537.36" etag="9JtYYlb-sat62gcOyb_6" version="14.9.0" type="github">
  <diagram id="WEavagxoX7mWQo-rN5Ej" name="Page-1">
    <mxGraphModel dx="1296" dy="619" grid="1" gridSize="10" guides="1" tooltips="1" connect="1" arrows="1" fold="1" page="1" pageScale="1" pageWidth="827" pageHeight="1169" math="0" shadow="0">
      <root>
        <mxCell id="0" />
        <mxCell id="1" parent="0" />
        <mxCell id="f7zLeasrf6lSFa57BJZ2-8" style="edgeStyle=orthogonalEdgeStyle;rounded=0;orthogonalLoop=1;jettySize=auto;html=1;exitX=0;exitY=0.75;exitDx=0;exitDy=0;entryX=1;entryY=0.75;entryDx=0;entryDy=0;fontSize=19;strokeWidth=2;" parent="1" source="meVRYA2Hp27yC9P9ZgB7-14" target="meVRYA2Hp27yC9P9ZgB7-23" edge="1">
          <mxGeometry relative="1" as="geometry" />
        </mxCell>
        <mxCell id="f7zLeasrf6lSFa57BJZ2-9" value="任务进度/状态更新" style="edgeLabel;html=1;align=center;verticalAlign=middle;resizable=0;points=[];fontSize=19;fontStyle=1" parent="f7zLeasrf6lSFa57BJZ2-8" vertex="1" connectable="0">
          <mxGeometry x="0.2875" y="1" relative="1" as="geometry">
            <mxPoint x="16" y="22" as="offset" />
          </mxGeometry>
        </mxCell>
        <mxCell id="meVRYA2Hp27yC9P9ZgB7-14" value="" style="rounded=0;whiteSpace=wrap;html=1;strokeColor=#6c8ebf;fillColor=none;strokeWidth=3;fontSize=19;" parent="1" vertex="1">
          <mxGeometry x="939" y="330" width="230" height="90" as="geometry" />
        </mxCell>
        <mxCell id="meVRYA2Hp27yC9P9ZgB7-15" value="&lt;b style=&quot;font-size: 19px;&quot;&gt;Matlab&lt;/b&gt;" style="rounded=1;whiteSpace=wrap;html=1;strokeColor=#6c8ebf;fillColor=#dae8fc;strokeWidth=3;fontSize=19;" parent="1" vertex="1">
          <mxGeometry x="949" y="340" width="90" height="40" as="geometry" />
        </mxCell>
        <mxCell id="meVRYA2Hp27yC9P9ZgB7-16" value="&lt;b style=&quot;font-size: 19px;&quot;&gt;CodeV&lt;/b&gt;" style="rounded=1;whiteSpace=wrap;html=1;strokeColor=#6c8ebf;fillColor=#dae8fc;strokeWidth=3;fontSize=19;" parent="1" vertex="1">
          <mxGeometry x="1069" y="340" width="90" height="40" as="geometry" />
        </mxCell>
        <mxCell id="meVRYA2Hp27yC9P9ZgB7-17" value="&lt;b style=&quot;font-size: 19px&quot;&gt;计算节点&lt;/b&gt;" style="text;html=1;strokeColor=none;fillColor=none;align=center;verticalAlign=middle;whiteSpace=wrap;rounded=0;fontSize=19;" parent="1" vertex="1">
          <mxGeometry x="1014" y="390" width="95" height="20" as="geometry" />
        </mxCell>
        <mxCell id="meVRYA2Hp27yC9P9ZgB7-22" value="&lt;b style=&quot;font-size: 19px;&quot;&gt;&lt;font style=&quot;font-size: 19px;&quot;&gt;算力集群&lt;/font&gt;&lt;/b&gt;" style="text;html=1;strokeColor=none;fillColor=none;align=center;verticalAlign=middle;whiteSpace=wrap;rounded=0;fontSize=19;" parent="1" vertex="1">
          <mxGeometry x="940" y="300" width="90" height="20" as="geometry" />
        </mxCell>
        <mxCell id="f7zLeasrf6lSFa57BJZ2-6" style="edgeStyle=orthogonalEdgeStyle;rounded=0;orthogonalLoop=1;jettySize=auto;html=1;exitX=1;exitY=0.25;exitDx=0;exitDy=0;entryX=0;entryY=0.25;entryDx=0;entryDy=0;fontSize=19;strokeWidth=2;" parent="1" source="meVRYA2Hp27yC9P9ZgB7-23" target="meVRYA2Hp27yC9P9ZgB7-14" edge="1">
          <mxGeometry relative="1" as="geometry" />
        </mxCell>
        <mxCell id="f7zLeasrf6lSFa57BJZ2-7" value="创建仿真任务" style="edgeLabel;html=1;align=center;verticalAlign=middle;resizable=0;points=[];fontSize=19;fontStyle=1" parent="f7zLeasrf6lSFa57BJZ2-6" vertex="1" connectable="0">
          <mxGeometry x="-0.35" y="4" relative="1" as="geometry">
            <mxPoint x="2" y="-18" as="offset" />
          </mxGeometry>
        </mxCell>
        <mxCell id="f7zLeasrf6lSFa57BJZ2-22" style="edgeStyle=orthogonalEdgeStyle;rounded=0;orthogonalLoop=1;jettySize=auto;html=1;fontSize=19;strokeWidth=2;" parent="1" edge="1">
          <mxGeometry relative="1" as="geometry">
            <mxPoint x="338" y="410" as="targetPoint" />
            <mxPoint x="518" y="410" as="sourcePoint" />
            <Array as="points">
              <mxPoint x="468" y="410" />
              <mxPoint x="468" y="410" />
            </Array>
          </mxGeometry>
        </mxCell>
        <mxCell id="f7zLeasrf6lSFa57BJZ2-23" value="任务状态通知" style="edgeLabel;html=1;align=center;verticalAlign=middle;resizable=0;points=[];fontSize=19;fontStyle=1" parent="f7zLeasrf6lSFa57BJZ2-22" vertex="1" connectable="0">
          <mxGeometry x="-0.3" y="1" relative="1" as="geometry">
            <mxPoint x="-47" y="-24" as="offset" />
          </mxGeometry>
        </mxCell>
        <mxCell id="meVRYA2Hp27yC9P9ZgB7-23" value="&lt;b style=&quot;font-size: 19px;&quot;&gt;API SERVER&lt;/b&gt;" style="rounded=0;whiteSpace=wrap;html=1;fillColor=#f8cecc;strokeColor=#b85450;strokeWidth=3;fontSize=19;" parent="1" vertex="1">
          <mxGeometry x="530" y="330" width="200" height="90" as="geometry" />
        </mxCell>
        <mxCell id="meVRYA2Hp27yC9P9ZgB7-28" value="&lt;b style=&quot;font-size: 19px&quot;&gt;研发/工程&lt;/b&gt;" style="shape=umlActor;verticalLabelPosition=bottom;verticalAlign=top;html=1;outlineConnect=0;fillColor=#ffe6cc;strokeColor=#d79b00;strokeWidth=3;fontSize=19;" parent="1" vertex="1">
          <mxGeometry x="268" y="335" width="30" height="60" as="geometry" />
        </mxCell>
        <mxCell id="meVRYA2Hp27yC9P9ZgB7-31" value="" style="endArrow=classic;html=1;strokeWidth=2;fontSize=19;" parent="1" edge="1">
          <mxGeometry width="50" height="50" relative="1" as="geometry">
            <mxPoint x="348" y="353" as="sourcePoint" />
            <mxPoint x="528" y="353" as="targetPoint" />
            <Array as="points">
              <mxPoint x="338" y="353" />
            </Array>
          </mxGeometry>
        </mxCell>
        <mxCell id="f7zLeasrf6lSFa57BJZ2-3" value="创建/查看仿真任务" style="edgeLabel;html=1;align=center;verticalAlign=middle;resizable=0;points=[];fontSize=19;fontStyle=1" parent="meVRYA2Hp27yC9P9ZgB7-31" vertex="1" connectable="0">
          <mxGeometry x="-0.2372" y="3" relative="1" as="geometry">
            <mxPoint x="14" y="-17" as="offset" />
          </mxGeometry>
        </mxCell>
        <mxCell id="meVRYA2Hp27yC9P9ZgB7-51" value="&lt;b style=&quot;font-size: 19px;&quot;&gt;MySQL&lt;/b&gt;" style="shape=cylinder3;whiteSpace=wrap;html=1;boundedLbl=1;backgroundOutline=1;size=15;fillColor=#e1d5e7;strokeColor=#9673a6;strokeWidth=3;fontSize=19;" parent="1" vertex="1">
          <mxGeometry x="504" y="155" width="112" height="80" as="geometry" />
        </mxCell>
        <mxCell id="meVRYA2Hp27yC9P9ZgB7-52" value="" style="endArrow=classic;html=1;exitX=0.145;exitY=-0.022;exitDx=0;exitDy=0;entryX=0.5;entryY=1;entryDx=0;entryDy=0;entryPerimeter=0;strokeWidth=2;fontSize=19;exitPerimeter=0;" parent="1" source="meVRYA2Hp27yC9P9ZgB7-23" target="meVRYA2Hp27yC9P9ZgB7-51" edge="1">
          <mxGeometry width="50" height="50" relative="1" as="geometry">
            <mxPoint x="890" y="450" as="sourcePoint" />
            <mxPoint x="940" y="400" as="targetPoint" />
          </mxGeometry>
        </mxCell>
        <mxCell id="meVRYA2Hp27yC9P9ZgB7-33" value="" style="rounded=0;whiteSpace=wrap;html=1;strokeColor=#6c8ebf;fillColor=none;dashed=1;strokeWidth=3;fontSize=19;" parent="1" vertex="1">
          <mxGeometry x="920" y="290" width="270" height="150" as="geometry" />
        </mxCell>
        <mxCell id="izCRMT_DsCXFCk0jyUp6-1" style="edgeStyle=orthogonalEdgeStyle;rounded=0;orthogonalLoop=1;jettySize=auto;html=1;fontSize=19;strokeWidth=2;entryX=0.842;entryY=1.022;entryDx=0;entryDy=0;entryPerimeter=0;" edge="1" parent="1">
          <mxGeometry relative="1" as="geometry">
            <mxPoint x="679.04" y="421.98" as="targetPoint" />
            <Array as="points">
              <mxPoint x="598" y="490" />
              <mxPoint x="679" y="490" />
            </Array>
            <mxPoint x="598" y="420" as="sourcePoint" />
          </mxGeometry>
        </mxCell>
        <mxCell id="izCRMT_DsCXFCk0jyUp6-2" value="更新计算节点" style="edgeLabel;html=1;align=center;verticalAlign=middle;resizable=0;points=[];fontSize=19;fontStyle=1" vertex="1" connectable="0" parent="izCRMT_DsCXFCk0jyUp6-1">
          <mxGeometry x="0.1323" y="4" relative="1" as="geometry">
            <mxPoint x="-14" y="24" as="offset" />
          </mxGeometry>
        </mxCell>
        <mxCell id="izCRMT_DsCXFCk0jyUp6-3" style="edgeStyle=orthogonalEdgeStyle;rounded=0;orthogonalLoop=1;jettySize=auto;html=1;strokeWidth=2;exitX=0.75;exitY=0;exitDx=0;exitDy=0;" edge="1" parent="1" target="izCRMT_DsCXFCk0jyUp6-5">
          <mxGeometry relative="1" as="geometry">
            <mxPoint x="700" y="330" as="sourcePoint" />
          </mxGeometry>
        </mxCell>
        <mxCell id="izCRMT_DsCXFCk0jyUp6-4" value="主动查询" style="edgeLabel;html=1;align=center;verticalAlign=middle;resizable=0;points=[];fontSize=19;fontStyle=1" vertex="1" connectable="0" parent="izCRMT_DsCXFCk0jyUp6-3">
          <mxGeometry x="0.3647" y="-4" relative="1" as="geometry">
            <mxPoint x="46" y="14" as="offset" />
          </mxGeometry>
        </mxCell>
        <mxCell id="izCRMT_DsCXFCk0jyUp6-5" value="&lt;b style=&quot;font-size: 19px&quot;&gt;文件存储&lt;br&gt;服务器&lt;/b&gt;" style="shape=cylinder3;whiteSpace=wrap;html=1;boundedLbl=1;backgroundOutline=1;size=15;fillColor=#e1d5e7;strokeColor=#9673a6;strokeWidth=3;fontSize=19;" vertex="1" parent="1">
          <mxGeometry x="640" y="157" width="120" height="80" as="geometry" />
        </mxCell>
      </root>
    </mxGraphModel>
  </diagram>
</mxfile>
